<svg width="98" height="98" viewBox="0 0 98 98" fill="none" xmlns="http://www.w3.org/2000/svg">
<path d="M26.243 29.3223H26.3426C26.7879 29.3223 27.2254 29.4297 27.6551 29.6445C27.7918 29.7188 27.9266 29.8047 28.0594 29.9023C28.1258 29.9492 28.2313 30.0391 28.3758 30.1719C28.5281 30.3359 28.6375 30.4688 28.7039 30.5703C28.7625 30.6562 28.8152 30.7422 28.8621 30.8281L27.8426 31.332C27.8113 31.2617 27.7371 31.1602 27.6199 31.0273C27.2605 30.6445 26.8152 30.4531 26.284 30.4531C25.7605 30.4531 25.3367 30.6074 25.0125 30.916C24.8914 31.0488 24.8152 31.1543 24.784 31.2324C24.6902 31.4121 24.6434 31.5977 24.6434 31.7891V31.8301C24.6434 32.0996 24.743 32.3086 24.9422 32.457C25.032 32.5273 25.118 32.584 25.2 32.627C25.4031 32.7363 25.7039 32.8477 26.1023 32.9609C26.3992 33.0469 26.7566 33.1348 27.1746 33.2246C27.409 33.291 27.6043 33.3613 27.7605 33.4355C27.9129 33.5098 28.0711 33.6094 28.2352 33.7344C28.3797 33.8555 28.5066 33.9844 28.616 34.1211C28.9246 34.5391 29.0789 35.002 29.0789 35.5098V35.5391C29.0789 36.0391 28.9285 36.5137 28.6277 36.9629C28.577 37.0449 28.4852 37.1562 28.3523 37.2969C28.1727 37.4609 28.0242 37.5781 27.907 37.6484C27.782 37.7266 27.6453 37.7969 27.4969 37.8594C27.0867 38.0312 26.6629 38.1172 26.2254 38.1172C25.5496 38.1172 24.9305 37.918 24.368 37.5195C24.2664 37.4414 24.1609 37.3516 24.0516 37.25C23.8953 37.0938 23.7859 36.9727 23.7234 36.8867C23.6023 36.7227 23.5086 36.5781 23.4422 36.4531C23.3719 36.3203 23.3328 36.2402 23.325 36.2129L24.3504 35.7383C24.4129 35.8789 24.4988 36.0234 24.6082 36.1719C24.659 36.2461 24.7371 36.334 24.8426 36.4355C24.9949 36.5723 25.118 36.666 25.2117 36.7168C25.5281 36.8926 25.8602 36.9805 26.2078 36.9805H26.2488C26.5965 36.9805 26.9285 36.8945 27.2449 36.7227C27.3309 36.6719 27.4207 36.6055 27.5145 36.5234C27.6199 36.418 27.698 36.3223 27.7488 36.2363C27.8816 36.0059 27.948 35.7676 27.948 35.5215C27.948 35.123 27.7801 34.8027 27.4441 34.5605C27.3465 34.498 27.2586 34.4512 27.1805 34.4199C27.0438 34.3574 26.8309 34.2988 26.5418 34.2441C25.7215 34.0566 25.1238 33.8652 24.7488 33.6699C23.9207 33.2598 23.5066 32.6387 23.5066 31.8066C23.5066 31.252 23.6883 30.748 24.0516 30.2949C24.1688 30.1543 24.2938 30.0312 24.4266 29.9258C24.5867 29.8047 24.7273 29.7129 24.8484 29.6504C24.9813 29.5801 25.1414 29.5156 25.3289 29.457C25.6336 29.3672 25.9383 29.3223 26.243 29.3223ZM36.0555 29.4219H36.0673C37.1727 29.4219 38.1395 29.8516 38.9677 30.7109C39.2606 31.0469 39.4677 31.3359 39.5888 31.5781C39.5575 31.6055 39.2274 31.7871 38.5985 32.123C38.493 31.9316 38.3348 31.7109 38.1239 31.4609C37.5184 30.8516 36.8329 30.5469 36.0673 30.5469C35.2899 30.5469 34.6005 30.8555 33.9989 31.4727C33.4208 32.125 33.1317 32.8691 33.1317 33.7051C33.1317 34.6738 33.5009 35.5 34.2391 36.1836C34.7977 36.6367 35.3895 36.8633 36.0145 36.8633H36.1376C36.8251 36.8633 37.4677 36.5801 38.0653 36.0137C38.3192 35.7324 38.4989 35.4883 38.6044 35.2812L39.5946 35.8027V35.8262C39.4618 36.0723 39.286 36.332 39.0673 36.6055C38.2157 37.5352 37.2157 38 36.0673 38C34.9266 38 33.9305 37.543 33.079 36.6289C32.3641 35.7656 32.0067 34.7988 32.0067 33.7285V33.6934C32.0067 32.6113 32.37 31.6406 33.0966 30.7812C33.9403 29.875 34.9266 29.4219 36.0555 29.4219ZM42.9267 29.4219H45.7509C46.6572 29.4219 47.4267 29.7617 48.0595 30.4414C48.5088 30.9883 48.7334 31.5898 48.7334 32.2461C48.7334 33.0508 48.4111 33.7461 47.7666 34.332C47.4189 34.6133 47.1142 34.793 46.8525 34.8711C46.8525 34.8906 47.2353 35.5527 48.0009 36.8574L48.6572 37.9824L48.6455 37.9941H47.3154C47.2998 37.9941 47.1923 37.8066 46.9931 37.4316C46.165 35.9785 45.7216 35.1914 45.663 35.0703H44.0341V37.9824L44.0224 38H42.9267L42.9091 37.9824V29.4395L42.9267 29.4219ZM44.0341 30.5645V33.9336H45.8037C46.3662 33.9336 46.8505 33.7012 47.2568 33.2363C47.4834 32.9238 47.5966 32.6055 47.5966 32.2812V32.2051C47.5966 31.6934 47.3505 31.2539 46.8584 30.8867C46.5537 30.6602 46.1298 30.5469 45.5869 30.5469H44.0517L44.0341 30.5645ZM55.628 29.4219H55.6455C56.7784 29.4219 57.7725 29.8652 58.628 30.752C59.3858 31.6191 59.7647 32.6055 59.7647 33.7109C59.7647 34.9219 59.3174 35.9785 58.4229 36.8809C57.5909 37.627 56.6651 38 55.6455 38C54.6221 38 53.7002 37.6348 52.8799 36.9043C52.5166 36.5293 52.2823 36.2402 52.1768 36.0371C51.7354 35.3223 51.5147 34.5488 51.5147 33.7168V33.6934C51.5147 32.4824 51.9678 31.4238 52.8741 30.5176L53.2666 30.1953C53.9971 29.6797 54.7842 29.4219 55.628 29.4219ZM52.6397 33.7051C52.6397 34.6309 52.9912 35.4336 53.6944 36.1133C54.2725 36.6133 54.9229 36.8633 55.6455 36.8633C56.583 36.8633 57.3741 36.4492 58.0186 35.6211C58.4248 35.0273 58.628 34.4062 58.628 33.7578V33.6816C58.628 32.8809 58.3487 32.1582 57.7901 31.5137C57.1651 30.8691 56.4502 30.5469 55.6455 30.5469C54.7432 30.5469 53.9698 30.9316 53.3252 31.7012C52.8682 32.3184 52.6397 32.9863 52.6397 33.7051ZM63.2316 29.4219H64.3507L64.3566 29.4277V36.8691H68.0773L68.0831 36.875V37.9941L68.0773 38H63.2316L63.2257 37.9941V29.4277L63.2316 29.4219ZM71.1281 29.4219H72.2473L72.2531 29.4277V36.8691H75.9738L75.9797 36.875V37.9941L75.9738 38H71.1281L71.1223 37.9941V29.4277L71.1281 29.4219ZM28.4208 46.4277H30.6532C31.6845 46.4277 32.62 46.7754 33.4598 47.4707C33.7841 47.7754 33.9911 47.9961 34.0809 48.1328C34.6591 48.918 34.9481 49.7676 34.9481 50.6816V50.7461C34.9481 51.8867 34.5145 52.9023 33.6473 53.793C33.1708 54.2227 32.704 54.5234 32.247 54.6953C31.7235 54.8984 31.2098 55 30.7059 55H28.4208L28.4032 54.9824V46.4453L28.4208 46.4277ZM29.5341 47.5703V53.8691H30.5653C31.5653 53.8691 32.3954 53.502 33.0555 52.7676C33.5673 52.1543 33.8231 51.4707 33.8231 50.7168C33.8231 49.9512 33.5614 49.2617 33.038 48.6484C32.7294 48.3242 32.4891 48.1211 32.3173 48.0391C32.1649 47.9297 31.9227 47.8164 31.5907 47.6992C31.2977 47.6055 30.9149 47.5586 30.4423 47.5586H29.5458L29.5341 47.5703ZM42.1064 46.4219H42.124C43.2568 46.4219 44.2509 46.8652 45.1064 47.752C45.8642 48.6191 46.2431 49.6055 46.2431 50.7109C46.2431 51.9219 45.7959 52.9785 44.9013 53.8809C44.0693 54.627 43.1435 55 42.124 55C41.1005 55 40.1787 54.6348 39.3584 53.9043C38.9951 53.5293 38.7607 53.2402 38.6552 53.0371C38.2138 52.3223 37.9931 51.5488 37.9931 50.7168V50.6934C37.9931 49.4824 38.4463 48.4238 39.3525 47.5176L39.7451 47.1953C40.4755 46.6797 41.2627 46.4219 42.1064 46.4219ZM39.1181 50.7051C39.1181 51.6309 39.4697 52.4336 40.1728 53.1133C40.7509 53.6133 41.4013 53.8633 42.124 53.8633C43.0615 53.8633 43.8525 53.4492 44.497 52.6211C44.9033 52.0273 45.1064 51.4062 45.1064 50.7578V50.6816C45.1064 49.8809 44.8271 49.1582 44.2685 48.5137C43.6435 47.8691 42.9287 47.5469 42.124 47.5469C41.2216 47.5469 40.4482 47.9316 39.8037 48.7012C39.3466 49.3184 39.1181 49.9863 39.1181 50.7051ZM50.2725 46.4219C50.292 46.4219 50.3311 46.5469 50.3897 46.7969C50.4561 47.0078 50.9659 48.834 51.919 52.2754L52.0772 52.8262H52.0889L54.1924 46.8672C54.2901 46.5859 54.3467 46.4375 54.3623 46.4219H55.1299C55.1416 46.4219 55.1905 46.5508 55.2764 46.8086L57.4092 52.8262H57.4151L59.1963 46.4277L59.208 46.4219H60.4209L60.4268 46.4277H60.4327L58.0537 54.7363C58.0108 54.9121 57.9834 55 57.9717 55H56.9873C56.9678 54.9766 56.7354 54.3242 56.2901 53.043C56.1807 52.7578 55.669 51.3105 54.7549 48.7012C54.7276 48.7402 54.6573 48.9297 54.544 49.2695L52.5108 55H51.5205C51.5088 55 51.458 54.8281 51.3682 54.4844L49.0537 46.4277L49.0596 46.4219H50.2725ZM63.7472 46.4219H64.9659L69.0792 52.5508L69.4542 53.1191H69.4601V46.4395L69.4777 46.4219H70.5792L70.5968 46.4395V54.9824L70.5792 55H69.3605C69.1495 54.7031 68.3702 53.5391 67.0226 51.5078L64.8546 48.2969V54.9824L64.8429 55H63.7472L63.7296 54.9824V46.4395L63.7472 46.4219ZM44.0859 65.5625H45.7734C45.7891 65.5729 46.0286 66.1536 46.4922 67.3047L49.4922 74.6953H49.5L53.1484 65.6953C53.1797 65.6068 53.2031 65.5625 53.2188 65.5625H54.8906L54.8984 65.5703H54.9062L50.2812 76.7734C50.2344 76.9193 50.2005 76.9948 50.1797 77H48.8203C48.7943 76.9948 48.7422 76.8828 48.6641 76.6641C46.4974 71.4401 45.3542 68.6667 45.2344 68.3438C45.1771 68.2448 44.7943 67.3203 44.0859 65.5703V65.5625Z" fill="#FF5C00"/>
<circle cx="49" cy="49" r="48.5" fill="#FF5C00" fill-opacity="0.13" stroke="#FF5C00"/>
</svg>
