<svg width="32" height="32" viewBox="0 0 32 32" fill="none" xmlns="http://www.w3.org/2000/svg">
<g clip-path="url(#clip0)">
<path fill-rule="evenodd" clip-rule="evenodd" d="M0.768827 3.5935C0.0182495 5.03843 0.0182495 6.93673 0.0182495 10.7333V21.2667C0.0182495 25.0633 0.0182495 26.9616 0.768827 28.4065C1.40133 29.6241 2.39413 30.6169 3.61175 31.2494C5.05668 32 6.95498 32 10.7516 32H21.2849C25.0815 32 26.9798 32 28.4247 31.2494C29.6424 30.6169 30.6352 29.6241 31.2677 28.4065C32.0182 26.9616 32.0182 25.0633 32.0182 21.2667V10.7333C32.0182 6.93673 32.0182 5.03843 31.2677 3.5935C30.6352 2.37588 29.6424 1.38308 28.4247 0.750577C26.9798 0 25.0815 0 21.2849 0H10.7516C6.95498 0 5.05668 0 3.61175 0.750577C2.39413 1.38308 1.40133 2.37588 0.768827 3.5935ZM11.2026 4.43397C12.4437 4.37749 12.8403 4.36367 16.0005 4.36367H15.9968C19.1579 4.36367 19.5531 4.37749 20.7943 4.43397C22.033 4.4907 22.879 4.68682 23.6208 4.97458C24.3869 5.27155 25.0341 5.66912 25.6814 6.31639C26.3286 6.96318 26.7262 7.61239 27.0244 8.37773C27.3104 9.11761 27.5068 9.96318 27.565 11.202C27.6207 12.4432 27.6353 12.8398 27.6353 16C27.6353 19.1603 27.6207 19.5559 27.565 20.7971C27.5068 22.0354 27.3104 22.8812 27.0244 23.6214C26.7262 24.3865 26.3286 25.0357 25.6814 25.6825C25.0349 26.3297 24.3866 26.7283 23.6216 27.0255C22.8812 27.3132 22.0347 27.5094 20.796 27.5661C19.5548 27.6226 19.1594 27.6364 15.999 27.6364C12.8391 27.6364 12.4428 27.6226 11.2016 27.5661C9.96307 27.5094 9.11728 27.3132 8.37694 27.0255C7.61211 26.7283 6.96292 26.3297 6.31639 25.6825C5.66938 25.0357 5.27182 24.3865 4.97438 23.6211C4.68687 22.8812 4.49075 22.0357 4.43379 20.7969C4.37754 19.5557 4.36348 19.1603 4.36348 16C4.36348 12.8398 4.37803 12.4429 4.43354 11.2017C4.4893 9.96342 4.68566 9.11761 4.97413 8.37749C5.27231 7.61239 5.66987 6.96318 6.31712 6.31639C6.96389 5.66936 7.61308 5.27179 8.37839 4.97458C9.11825 4.68682 9.9638 4.4907 11.2026 4.43397ZM15.6126 6.46052C15.3773 6.46042 15.1593 6.46032 14.9566 6.46064V6.45773C12.788 6.46015 12.372 6.4747 11.2985 6.52318C10.164 6.5753 9.54805 6.76439 9.13789 6.92439C8.59487 7.13579 8.207 7.38791 7.79974 7.79518C7.39248 8.20245 7.13989 8.59033 6.92898 9.13336C6.76971 9.54355 6.58014 10.1593 6.52827 11.2938C6.47251 12.5205 6.46136 12.8871 6.46136 15.9945C6.46136 19.1018 6.47251 19.4703 6.52827 20.697C6.5799 21.8315 6.76971 22.4473 6.92898 22.857C7.14037 23.4003 7.39248 23.7872 7.79974 24.1945C8.207 24.6017 8.59487 24.8538 9.13789 25.0648C9.5483 25.224 10.164 25.4136 11.2985 25.466C12.5252 25.5217 12.8934 25.5338 16.0005 25.5338C19.1073 25.5338 19.4758 25.5217 20.7024 25.466C21.8369 25.4141 22.4531 25.225 22.8628 25.065C23.4061 24.8541 23.7927 24.602 24.2 24.1947C24.6072 23.7877 24.8598 23.401 25.0707 22.858C25.23 22.4483 25.4196 21.8325 25.4715 20.698C25.5272 19.4713 25.5393 19.1028 25.5393 15.9974C25.5393 12.8919 25.5272 12.5234 25.4715 11.2968C25.4198 10.1622 25.23 9.54645 25.0707 9.13676C24.8593 8.59373 24.6072 8.20585 24.2 7.79858C23.793 7.3913 23.4058 7.13918 22.8628 6.92827C22.4526 6.769 21.8369 6.57943 20.7024 6.52755C19.4755 6.47179 19.1073 6.46064 16.0005 6.46064C15.8662 6.46064 15.737 6.46058 15.6126 6.46052ZM20.8153 9.78864C20.8153 9.01748 21.4408 8.39276 22.2117 8.39276V8.39227C22.9826 8.39227 23.608 9.01773 23.608 9.78864C23.608 10.5595 22.9826 11.185 22.2117 11.185C21.4408 11.185 20.8153 10.5595 20.8153 9.78864ZM10.0249 16C10.0249 12.7 12.7003 10.0244 16.0002 10.0243C19.3002 10.0243 21.9751 12.6999 21.9751 16C21.9751 19.3001 19.3005 21.9746 16.0005 21.9746C12.7004 21.9746 10.0249 19.3001 10.0249 16ZM19.8791 16C19.8791 13.8577 18.1425 12.1212 16.0005 12.1212C13.8582 12.1212 12.1218 13.8577 12.1218 16C12.1218 18.1421 13.8582 19.8788 16.0005 19.8788C18.1425 19.8788 19.8791 18.1421 19.8791 16Z" fill="url(#paint0_radial)"/>
<path fill-rule="evenodd" clip-rule="evenodd" d="M0.768827 3.5935C0.0182495 5.03843 0.0182495 6.93673 0.0182495 10.7333V21.2667C0.0182495 25.0633 0.0182495 26.9616 0.768827 28.4065C1.40133 29.6241 2.39413 30.6169 3.61175 31.2494C5.05668 32 6.95498 32 10.7516 32H21.2849C25.0815 32 26.9798 32 28.4247 31.2494C29.6424 30.6169 30.6352 29.6241 31.2677 28.4065C32.0182 26.9616 32.0182 25.0633 32.0182 21.2667V10.7333C32.0182 6.93673 32.0182 5.03843 31.2677 3.5935C30.6352 2.37588 29.6424 1.38308 28.4247 0.750577C26.9798 0 25.0815 0 21.2849 0H10.7516C6.95498 0 5.05668 0 3.61175 0.750577C2.39413 1.38308 1.40133 2.37588 0.768827 3.5935ZM11.2026 4.43397C12.4437 4.37749 12.8403 4.36367 16.0005 4.36367H15.9968C19.1579 4.36367 19.5531 4.37749 20.7943 4.43397C22.033 4.4907 22.879 4.68682 23.6208 4.97458C24.3869 5.27155 25.0341 5.66912 25.6814 6.31639C26.3286 6.96318 26.7262 7.61239 27.0244 8.37773C27.3104 9.11761 27.5068 9.96318 27.565 11.202C27.6207 12.4432 27.6353 12.8398 27.6353 16C27.6353 19.1603 27.6207 19.5559 27.565 20.7971C27.5068 22.0354 27.3104 22.8812 27.0244 23.6214C26.7262 24.3865 26.3286 25.0357 25.6814 25.6825C25.0349 26.3297 24.3866 26.7283 23.6216 27.0255C22.8812 27.3132 22.0347 27.5094 20.796 27.5661C19.5548 27.6226 19.1594 27.6364 15.999 27.6364C12.8391 27.6364 12.4428 27.6226 11.2016 27.5661C9.96307 27.5094 9.11728 27.3132 8.37694 27.0255C7.61211 26.7283 6.96292 26.3297 6.31639 25.6825C5.66938 25.0357 5.27182 24.3865 4.97438 23.6211C4.68687 22.8812 4.49075 22.0357 4.43379 20.7969C4.37754 19.5557 4.36348 19.1603 4.36348 16C4.36348 12.8398 4.37803 12.4429 4.43354 11.2017C4.4893 9.96342 4.68566 9.11761 4.97413 8.37749C5.27231 7.61239 5.66987 6.96318 6.31712 6.31639C6.96389 5.66936 7.61308 5.27179 8.37839 4.97458C9.11825 4.68682 9.9638 4.4907 11.2026 4.43397ZM15.6126 6.46052C15.3773 6.46042 15.1593 6.46032 14.9566 6.46064V6.45773C12.788 6.46015 12.372 6.4747 11.2985 6.52318C10.164 6.5753 9.54805 6.76439 9.13789 6.92439C8.59487 7.13579 8.207 7.38791 7.79974 7.79518C7.39248 8.20245 7.13989 8.59033 6.92898 9.13336C6.76971 9.54355 6.58014 10.1593 6.52827 11.2938C6.47251 12.5205 6.46136 12.8871 6.46136 15.9945C6.46136 19.1018 6.47251 19.4703 6.52827 20.697C6.5799 21.8315 6.76971 22.4473 6.92898 22.857C7.14037 23.4003 7.39248 23.7872 7.79974 24.1945C8.207 24.6017 8.59487 24.8538 9.13789 25.0648C9.5483 25.224 10.164 25.4136 11.2985 25.466C12.5252 25.5217 12.8934 25.5338 16.0005 25.5338C19.1073 25.5338 19.4758 25.5217 20.7024 25.466C21.8369 25.4141 22.4531 25.225 22.8628 25.065C23.4061 24.8541 23.7927 24.602 24.2 24.1947C24.6072 23.7877 24.8598 23.401 25.0707 22.858C25.23 22.4483 25.4196 21.8325 25.4715 20.698C25.5272 19.4713 25.5393 19.1028 25.5393 15.9974C25.5393 12.8919 25.5272 12.5234 25.4715 11.2968C25.4198 10.1622 25.23 9.54645 25.0707 9.13676C24.8593 8.59373 24.6072 8.20585 24.2 7.79858C23.793 7.3913 23.4058 7.13918 22.8628 6.92827C22.4526 6.769 21.8369 6.57943 20.7024 6.52755C19.4755 6.47179 19.1073 6.46064 16.0005 6.46064C15.8662 6.46064 15.737 6.46058 15.6126 6.46052ZM20.8153 9.78864C20.8153 9.01748 21.4408 8.39276 22.2117 8.39276V8.39227C22.9826 8.39227 23.608 9.01773 23.608 9.78864C23.608 10.5595 22.9826 11.185 22.2117 11.185C21.4408 11.185 20.8153 10.5595 20.8153 9.78864ZM10.0249 16C10.0249 12.7 12.7003 10.0244 16.0002 10.0243C19.3002 10.0243 21.9751 12.6999 21.9751 16C21.9751 19.3001 19.3005 21.9746 16.0005 21.9746C12.7004 21.9746 10.0249 19.3001 10.0249 16ZM19.8791 16C19.8791 13.8577 18.1425 12.1212 16.0005 12.1212C13.8582 12.1212 12.1218 13.8577 12.1218 16C12.1218 18.1421 13.8582 19.8788 16.0005 19.8788C18.1425 19.8788 19.8791 18.1421 19.8791 16Z" fill="#696969"/>
</g>
<defs>
<radialGradient id="paint0_radial" cx="0" cy="0" r="1" gradientUnits="userSpaceOnUse" gradientTransform="translate(8.51829 34.4647) rotate(-90) scale(31.7144 29.4969)">
<stop stop-color="#FFDD55"/>
<stop offset="0.1" stop-color="#FFDD55"/>
<stop offset="0.5" stop-color="#FF543E"/>
<stop offset="1" stop-color="#C837AB"/>
</radialGradient>
<clipPath id="clip0">
<rect width="32" height="32" fill="white"/>
</clipPath>
</defs>
</svg>
