<svg width="32" height="32" viewBox="0 0 32 32" fill="none" xmlns="http://www.w3.org/2000/svg">
<path fill-rule="evenodd" clip-rule="evenodd" d="M0.750577 3.5935C0 5.03843 0 6.93673 0 10.7333V21.2667C0 25.0633 0 26.9616 0.750577 28.4065C1.38308 29.6241 2.37588 30.6169 3.5935 31.2494C5.03843 32 6.93673 32 10.7333 32H21.2667C25.0633 32 26.9616 32 28.4065 31.2494C29.6241 30.6169 30.6169 29.6241 31.2494 28.4065C32 26.9616 32 25.0633 32 21.2667V10.7333C32 6.93673 32 5.03843 31.2494 3.5935C30.6169 2.37588 29.6241 1.38308 28.4065 0.750577C26.9616 0 25.0633 0 21.2667 0H10.7333C6.93673 0 5.03843 0 3.5935 0.750577C2.37588 1.38308 1.38308 2.37588 0.750577 3.5935ZM7.18255 9.93773C8.71569 9.93773 9.95855 8.69487 9.95855 7.16173C9.95855 5.6286 8.71569 4.38574 7.18255 4.38574C5.64942 4.38574 4.40656 5.6286 4.40656 7.16173C4.40656 8.69487 5.64942 9.93773 7.18255 9.93773ZM12.5009 11.9893H17.1016V14.0969C17.1016 14.0969 18.3501 11.5999 21.747 11.5999C24.7771 11.5999 27.2873 13.0927 27.2873 17.6427V27.2373H22.5197V18.8053C22.5197 16.1212 21.0867 15.826 19.9948 15.826C17.7287 15.826 17.3407 17.7807 17.3407 19.1554V27.2373H12.5009V11.9893ZM9.60246 11.9893H4.76265V27.2373H9.60246V11.9893Z" fill="white" fill-opacity="0.9"/>
</svg>
