<svg width="32" height="32" viewBox="0 0 32 32" fill="none" xmlns="http://www.w3.org/2000/svg">
<path fill-rule="evenodd" clip-rule="evenodd" d="M0.750577 3.5935C0 5.03843 0 6.93673 0 10.7333V21.2667C0 25.0633 0 26.9616 0.750577 28.4065C1.38308 29.6241 2.37588 30.6169 3.5935 31.2494C5.03843 32 6.93673 32 10.7333 32H21.2667C25.0633 32 26.9616 32 28.4065 31.2494C29.6241 30.6169 30.6169 29.6241 31.2494 28.4065C32 26.9616 32 25.0633 32 21.2667V10.7333C32 6.93673 32 5.03843 31.2494 3.5935C30.6169 2.37588 29.6241 1.38308 28.4065 0.750577C26.9616 0 25.0633 0 21.2667 0H10.7333C6.93673 0 5.03843 0 3.5935 0.750577C2.37588 1.38308 1.38308 2.37588 0.750577 3.5935ZM10.1873 23.5724C14.3411 23.5724 17.7082 20.182 17.7082 15.9999C17.7082 11.8178 14.3408 8.42767 10.1873 8.42767C6.03384 8.42767 2.66667 11.8168 2.66667 15.9999C2.66667 20.183 6.03358 23.5724 10.1873 23.5724ZM22.1983 23.128C24.275 23.128 25.9588 19.9368 25.9588 15.9999C25.9588 12.064 24.275 8.87178 22.1983 8.87178C20.1216 8.87178 18.4378 12.064 18.4378 15.9999C18.4378 19.9358 20.1216 23.128 22.1983 23.128ZM28.0107 22.3864C28.7411 22.3864 29.3333 19.5272 29.3333 15.9999C29.3333 12.4729 28.7416 9.6134 28.011 9.6134C27.2803 9.6134 26.6881 12.4736 26.6881 15.9999C26.6881 19.5262 27.2803 22.3864 28.0107 22.3864Z" fill="#696969"/>
</svg>
