<svg width="32" height="32" viewBox="0 0 32 32" fill="none" xmlns="http://www.w3.org/2000/svg">
<path fill-rule="evenodd" clip-rule="evenodd" d="M0.750577 3.5935C0 5.03843 0 6.93673 0 10.7333V21.2667C0 25.0633 0 26.9616 0.750577 28.4065C1.38308 29.6241 2.37588 30.6169 3.5935 31.2494C5.03843 32 6.93673 32 10.7333 32H21.2667C25.0633 32 26.9616 32 28.4065 31.2494C29.6241 30.6169 30.6169 29.6241 31.2494 28.4065C32 26.9616 32 25.0633 32 21.2667V10.7333C32 6.93673 32 5.03843 31.2494 3.5935C30.6169 2.37588 29.6241 1.38308 28.4065 0.750577C26.9616 0 25.0633 0 21.2667 0H10.7333C6.93673 0 5.03843 0 3.5935 0.750577C2.37588 1.38308 1.38308 2.37588 0.750577 3.5935ZM24.4169 7.71958C22.401 5.70234 19.7617 4.5343 16.9292 4.3951L16.3603 4.38102C10.0827 4.38102 4.97347 9.48743 4.97095 15.7638C4.97012 17.7702 5.49457 19.7285 6.49126 21.4548L4.87545 27.3538L10.9131 25.7708C12.5766 26.6777 14.4495 27.1557 16.3557 27.1563H16.3605C22.6374 27.1563 27.7471 22.0494 27.7496 15.7729C27.7508 12.7313 26.5672 9.87121 24.4169 7.71958ZM11.5385 23.915L11.1928 23.71L7.61001 24.6493L8.56631 21.1579L8.34124 20.7998C7.39365 19.2935 6.8932 17.5523 6.89391 15.7645C6.89599 10.5478 11.1426 6.30369 16.3642 6.30369C18.8926 6.30451 21.2694 7.29002 23.0567 9.07852C24.8439 10.8669 25.8276 13.2441 25.8266 15.7722C25.8245 20.9893 21.578 25.2338 16.3604 25.2338H16.3566C14.6579 25.2332 12.9919 24.7771 11.5385 23.915ZM21.7084 18.2237C21.9069 18.3196 22.041 18.3843 22.0982 18.4799C22.1694 18.5985 22.1694 19.1679 21.9323 19.8325C21.6951 20.4968 20.5582 21.1033 20.0114 21.1849C19.5211 21.2582 18.9007 21.2887 18.219 21.0722C17.8057 20.9411 17.2756 20.7661 16.5967 20.473C13.9289 19.3216 12.126 16.7373 11.7852 16.2487C11.7613 16.2145 11.7446 16.1906 11.7353 16.1781L11.7328 16.1748C11.5815 15.973 10.5732 14.6279 10.5732 13.2357C10.5732 11.9254 11.2173 11.2386 11.5136 10.9226C11.5339 10.901 11.5525 10.8811 11.5692 10.8628C11.8301 10.578 12.1384 10.5069 12.3281 10.5069C12.5178 10.5069 12.7077 10.5087 12.8735 10.5169C12.894 10.5179 12.9152 10.5178 12.9372 10.5177C13.1031 10.5167 13.3098 10.5155 13.5138 11.0052C13.5923 11.1935 13.707 11.4726 13.828 11.7671C14.0729 12.3631 14.3436 13.0219 14.3913 13.1172C14.4624 13.2596 14.5098 13.4256 14.415 13.6155C14.4007 13.644 14.3875 13.671 14.3749 13.6967C14.3037 13.842 14.2513 13.9489 14.1304 14.09C14.083 14.1454 14.034 14.205 13.985 14.2647C13.8869 14.384 13.7888 14.5034 13.7035 14.5884C13.561 14.7301 13.4128 14.8841 13.5787 15.1688C13.7447 15.4536 14.3159 16.385 15.1619 17.1393C16.0714 17.9501 16.8619 18.2928 17.2625 18.4665C17.3406 18.5004 17.4039 18.5278 17.4504 18.551C17.7349 18.6934 17.9009 18.6697 18.0669 18.4799C18.233 18.29 18.7783 17.6493 18.968 17.3646C19.1577 17.0799 19.3474 17.1273 19.6083 17.2221C19.8691 17.3171 21.2683 18.0052 21.5528 18.1476C21.6084 18.1754 21.6603 18.2005 21.7084 18.2237Z" fill="#696969"/>
</svg>
